<svg width="170" height="227" viewBox="0 0 170 227" fill="none" xmlns="http://www.w3.org/2000/svg">
<g clip-path="url(#clip0_2002_3)">
<path d="M38.2 212.67C63.35 230.17 98.35 231.13 124.33 212.95C156.73 190.28 156.34 150.93 156.25 147.75C167.5 147.05 169.53 115.24 169.17 105.87C169.24 100.21 165.82 91.94 158.98 94.39L159.55 82.3L159.77 71.47C159.88 66.07 159.06 61.12 157.94 55.82C154.29 37.65 141.6 22.06 125.8 12.71C118.1 7.70999 109.68 4.47999 100.78 2.12999C72.7 -5.31001 39.76 7.32999 21.66 29.3C6.41 47.37 6.04 71.63 7.63 94.38C-1.57 93.23 -0.0400014 106.08 0.319999 112.14C1.28 122.19 1.03 134.61 4.49 144.1C4.85 145.96 5.21 147.83 5.57 149.69C5.63 153.57 6.81 190.84 38.2 212.67ZM155.8 99.51C157.65 98.4 159.69 95.84 162.05 96.16C165.5 96.63 166.8 100.53 167.01 103.41C167.47 109.58 166.98 115.26 166.24 121.41C165.44 128.13 164.11 134.57 161.14 140.59C160.15 142.59 158.99 144.55 156.19 145.21L154.02 104.63C153.91 102.63 154.05 100.55 155.81 99.5L155.8 99.51ZM97.55 182.4L90.72 185.26C88.2 185.74 86.08 184.68 85.36 182.45C86.44 178.65 89.18 175.81 92.21 173.35C92.75 172.91 93.25 172.09 92.76 171.14C82.85 174.99 72.12 175.54 62.01 172.81C60.74 172.47 59.72 171.29 58.28 171.32C57.74 171.33 57.52 172.4 57.88 172.78L58.9 173.86C61.31 176.41 64.8 179.17 65.62 182.75C65.08 185.6 61.29 185.42 59.21 184.51C54.67 182.52 51.56 180.2 49.1 175.88C47.1 172.38 46.09 167.54 49.06 164.18C51.47 161.45 55.54 161.4 58.76 160.92C61.15 160.56 63.44 160.09 65.89 160.53C72.53 161.71 78.95 161.41 85.65 160.63L94.04 161.27C97.31 161.52 100.85 161.91 103.32 164.23C107.55 168.2 104.39 178.14 97.54 182.41L97.55 182.4ZM49.41 160.01C53.29 152.95 63.05 145.74 70.29 148.15C73.46 149.2 76.84 149.02 79.93 147.76C81.69 147.04 82.86 147.55 84.29 147.94C88.73 149.16 92.48 151.22 96.07 154.23L100.39 157.86C100.92 158.31 101.31 159.2 100.77 159.7L93.37 159.3C91.07 159.18 89.3 158.27 86.86 158.45L74.29 159.39L60.87 158.42L54.16 159.31C52.63 159.51 51.1 160.53 49.41 160.01ZM8.55 105.47C8.25 103.52 7.62 102.13 7.12 101.28C6.49 100.18 6.05 99.86 5.6 99.8C4.86 99.69 4.21 100.32 3.99 100.53C2.94 101.54 2.8 102.94 2.63 106.91C2.51 109.83 2.45 111.29 2.49 112.51C2.58 115.24 2.89 118.37 3.11 118.37C3.3 118.37 3.3 116.16 3.59 112.14C3.79 109.39 4.04 107.14 4.21 105.66C4.25 105.43 4.63 103.63 5.28 103.6C5.76 103.57 6.17 104.52 6.64 105.62C7 106.47 7.47 107.74 7.8 109.39C7.09 119.76 6.38 130.13 5.67 140.5C5.33 139.18 5.01 137.84 4.7 136.47C2.47 126.55 1.54 117.12 1.43 108.43C1.3 106.11 1.53 104.21 1.78 102.86C2.24 100.37 2.74 97.64 4.74 96.71C5.08 96.56 5.53 96.35 6.02 96.45C7.67 96.8 8.62 100.4 8.55 105.48V105.47ZM11.7 109.21C12.44 103.54 12.86 98.18 12.96 92.38C13.15 80.85 16.67 70.06 23.33 60.81L23.58 56.35C23.95 49.63 24.6 42.77 27.86 36.7C33.52 26.15 48.11 22.34 59.57 20.1C72.34 17.6 84.98 17.17 97.7 19.31C108.95 21.21 120.84 22.64 130.61 29.82C133.08 31.64 135.39 33.36 136.6 36.53C139.67 44.58 138.57 51.9 138.8 60.44C141.59 64.97 144.97 69.2 146.95 74.35C148.41 78.14 149.57 82.09 149.74 86.05L150.46 103.31L151.39 117.17C151.16 121.46 149.86 135.53 138.74 147.4C131.81 154.8 124.05 158.15 119.72 159.64C113.03 156.27 109.04 150.34 102.87 146.13C87.99 135.99 84.26 134.94 81.38 135.99C79.6 136.64 77.32 138.26 73.8 137.98C71.61 137.8 69.88 136.97 68.77 136.3C64.92 135.48 61.67 137.35 58.31 139C51.12 142.54 45.01 147.23 39 152.46L33.42 156.56C12.23 147.58 8.83 130.97 11.68 109.21H11.7Z" fill="black"/>
<path d="M131.85 84.35C125.63 79.15 118.64 78.08 111.05 79.01L100.4 80.32C96.39 80.81 91.81 81.3 87.78 80.58C85.79 79.06 87.16 75.17 88.82 73.8C96.76 67.21 102.24 67.93 111.67 68.26C115.46 68.39 118.34 68.98 121.72 70.61C127.67 73.48 132.65 77.98 134.27 84.8C134.35 85.13 133.25 85.52 132.93 85.24L131.86 84.34L131.85 84.35Z" fill="black"/>
<path d="M49.12 80.49C39.93 79.87 29.32 79.98 24.53 88.18C23.37 87.9 22.7 86.95 22.31 86.51C21.82 85.27 22.14 84.13 22.62 83.19C23.84 77.86 26.96 73.55 31.8 71.29C35.23 69.69 38.48 68.47 42.39 68.81L52.07 69.63C55.29 69.9 66.73 76.05 64.43 79.66C64.04 80.27 63.02 81.42 62.04 81.36L49.12 80.49Z" fill="black"/>
<path d="M113.16 93.09C112.17 97.31 108.22 99.21 104.03 97.89C101.3 97.03 99.41 94.88 97.44 92.56C94.42 93.75 93.08 97.19 91.74 96.57C89.85 95.7 91.91 91.31 95.05 90.01C99.14 88.32 103.85 87.54 108.32 88.15C110.79 88.49 113.43 88.73 115.53 89.84L123.16 93.89L124.15 94.88C124.37 95.32 124.42 95.66 124.28 95.89C123.71 96.84 120 95.89 113.14 93.08L113.16 93.09Z" fill="black"/>
<path d="M54.82 93.1C53.87 94.36 53.42 96.12 52.13 97.13C48.02 100.34 42.16 98.85 39.87 93.93C35.63 94.5 31.61 97.43 30.56 96.48C30.22 96.17 29.97 95.68 30.29 94.82C30.48 94.3 31.02 94.25 31.73 93.97L38.3 91.34C43.74 89.16 53.97 88.63 58.4 91.1C62.09 93.16 62.67 97.13 61 97.3C59.86 97.42 58.65 94.23 54.82 93.11V93.1Z" fill="black"/>
<path d="M89.34 132.07C87.76 133.28 85.64 131.95 83.03 131.71C81.04 131.53 78.1 131.94 74.26 134.84C73.48 134.28 72.39 133.58 70.99 132.97C69.58 132.36 68.18 131.81 66.37 131.69C64.48 131.57 62.54 132.6 60.76 132.07C59.32 131.64 58.68 130.95 58.69 129.58C58.69 128.5 59.26 127.52 60.71 126.92C64.83 125.22 71.78 131.29 75.11 130.91C78.96 130.47 84.59 125.13 88.81 126.97C89.97 127.47 90.39 128.47 90.57 129.34C90.8 130.46 90.03 131.54 89.35 132.06L89.34 132.07Z" fill="black"/>
<path d="M93.21 133.82C92.97 133.84 91.78 133.94 91.37 133.29C91.05 132.79 91.37 132.07 91.49 131.8C92.36 129.86 94.73 130.43 95.3 128.78C96.31 125.86 95.16 122.15 93.13 119.85C92.22 118.81 91.21 118.09 91.86 116.55C95.95 120.04 99.81 125.26 97.85 129.38C96.87 131.44 95.23 133.64 93.21 133.82Z" fill="black"/>
<path d="M58.68 132.19C59.15 133.03 59.03 133.34 58.95 133.46C58.67 133.89 57.74 133.71 57.46 133.66C55.86 133.36 54.81 132.11 54.42 131.65C52.61 129.54 52.35 126.43 53.44 123.56C54.55 120.63 56.59 118.27 59.09 116.44C59.77 119.08 55.61 120.42 55 125.99C54.89 127.02 54.84 128.01 55.42 128.95C56.24 130.29 57.66 130.37 58.68 132.19Z" fill="black"/>
<path d="M162.87 124.99C161.68 123.12 165.73 111.76 161.16 106.7C160.12 106.78 159.41 107.4 158.16 107.09C159.61 104.43 161.5 101.65 163.53 101.91C165.76 102.2 165.95 106.41 165.76 110.07C165.49 115.19 165.11 120.09 163.48 124.88C163.36 125.24 162.99 125.17 162.88 125L162.87 124.99Z" fill="black"/>
</g>
<defs>
<clipPath id="clip0_2002_3">
<rect width="169.2" height="226.2" fill="white"/>
</clipPath>
</defs>
</svg>
