<svg width="25" height="25" viewBox="0 0 25 25" fill="none" xmlns="http://www.w3.org/2000/svg">
<path d="M6.37506 14.7722C5.85132 14.773 5.33407 14.8881 4.8594 15.1094C4.38472 15.3307 3.96406 15.6529 3.62678 16.0536C3.28949 16.4543 3.04371 16.9237 2.90658 17.4292C2.76945 17.9346 2.74427 18.4639 2.83282 18.9801C2.92136 19.4963 3.12148 19.987 3.41922 20.4179C3.71695 20.8487 4.10513 21.2094 4.55666 21.4748C5.00819 21.7402 5.51218 21.9038 6.03348 21.9543C6.55477 22.0048 7.08081 21.9409 7.57486 21.7671" stroke="black" stroke-width="0.75" stroke-linecap="round" stroke-linejoin="round"/>
<path d="M3.09242 16.6978C2.37442 16.3522 1.75379 15.8332 1.28654 15.1876C0.819297 14.5421 0.520147 13.7904 0.416092 13.0003C0.312037 12.2103 0.40635 11.4067 0.690521 10.6622C0.974692 9.91775 1.43977 9.25574 2.0438 8.73595M2.07979 8.63876C1.68631 8.04996 1.51384 7.34092 1.59293 6.63717C1.67202 5.93341 1.99757 5.28034 2.51193 4.79357C3.02629 4.30679 3.6963 4.0177 4.40334 3.97749C5.11038 3.93727 5.80885 4.14851 6.37509 4.57383M6.66064 4.65181C6.46924 4.24513 6.37168 3.80064 6.37518 3.35118C6.37868 2.90172 6.48314 2.4588 6.68084 2.05515C6.87854 1.65149 7.16444 1.29743 7.51738 1.01913C7.87033 0.740832 8.28131 0.545411 8.71995 0.447312C9.15858 0.349214 9.61365 0.350946 10.0515 0.452382C10.4894 0.553818 10.8989 0.752363 11.2497 1.03334C11.6005 1.31432 11.8837 1.67055 12.0783 2.0757C12.273 2.48084 12.374 2.92455 12.3741 3.37402V21.971C12.3741 22.6074 12.1213 23.2178 11.6713 23.6678C11.2213 24.1178 10.6109 24.3706 9.9745 24.3706C9.33809 24.3706 8.72774 24.1178 8.27772 23.6678C7.82771 23.2178 7.57489 22.6074 7.57489 21.971M12.3741 6.37353C12.3741 7.32816 12.7533 8.24368 13.4284 8.9187C14.1034 9.59372 15.0189 9.97294 15.9735 9.97294M18.3731 14.7722C18.8969 14.7729 19.4141 14.888 19.8888 15.1093C20.3635 15.3306 20.7841 15.6529 21.1214 16.0535C21.4587 16.4542 21.7045 16.9237 21.8416 17.4291C21.9787 17.9346 22.0039 18.4639 21.9154 18.9801C21.8268 19.4963 21.6267 19.9869 21.329 20.4178C21.0312 20.8487 20.6431 21.2094 20.1915 21.4747C19.74 21.7401 19.236 21.9037 18.7147 21.9542C18.1934 22.0047 17.6674 21.9408 17.1733 21.767" stroke="black" stroke-width="0.75" stroke-linecap="round" stroke-linejoin="round"/>
<path d="M21.656 16.6978C22.374 16.3522 22.9946 15.8332 23.4618 15.1876C23.9291 14.5421 24.2282 13.7904 24.3323 13.0003C24.4363 12.2103 24.342 11.4067 24.0579 10.6622C23.7737 9.91775 23.3086 9.25574 22.7046 8.73595M22.6686 8.63876C23.0621 8.04996 23.2345 7.34092 23.1554 6.63717C23.0764 5.93341 22.7508 5.28034 22.2364 4.79357C21.7221 4.30679 21.0521 4.0177 20.345 3.97749C19.638 3.93727 18.9395 4.14851 18.3733 4.57383M12.3743 3.37402C12.3743 2.92455 12.4754 2.48084 12.6701 2.0757C12.8647 1.67055 13.1479 1.31432 13.4987 1.03334C13.8495 0.752363 14.259 0.553818 14.6969 0.452382C15.1347 0.350946 15.5898 0.349214 16.0284 0.447312C16.4671 0.545411 16.878 0.740832 17.231 1.01913C17.5839 1.29743 17.8698 1.65149 18.0675 2.05515C18.2652 2.4588 18.3697 2.90172 18.3732 3.35118C18.3767 3.80064 18.2791 4.24513 18.0877 4.65181M17.1735 21.971C17.1735 22.6074 16.9207 23.2178 16.4707 23.6678C16.0206 24.1178 15.4103 24.3706 14.7739 24.3706C14.1375 24.3706 13.5271 24.1178 13.0771 23.6678C12.6271 23.2178 12.3743 22.6074 12.3743 21.971" stroke="black" stroke-width="0.75" stroke-linecap="round" stroke-linejoin="round"/>
</svg>
