<svg width="220" height="16" viewBox="0 0 220 16" fill="none" xmlns="http://www.w3.org/2000/svg">
<g clip-path="url(#clip0_2003_194)">
<path d="M53.1058 16H37.1385V0H53.1058V16ZM40.3409 12.791H49.9033V3.20899H40.3409V12.791Z" fill="#D8553F"/>
<path d="M42.1919 5.06377V10.9394H48.0555V5.06377H42.1919Z" fill="#D8553F"/>
<path d="M15.9673 16H0V0H15.9673V16ZM3.20242 12.791H12.7649V3.20899H3.20242V12.791Z" fill="#332D26"/>
<path d="M5.05023 5.06057V10.9362H10.9139V5.06057H5.05023Z" fill="#332D26"/>
<path d="M23.6979 10.9362H29.5616V5.06057L23.6979 5.06057V10.9362Z" fill="#829363"/>
<path d="M34.6118 16H18.6445V0H34.6118V16ZM21.847 12.791H31.4094V3.20899H21.847V12.791Z" fill="#829363"/>
<path d="M108.738 16H92.771V0H108.738V16ZM95.9702 12.791H105.533V3.20899H95.9702V12.791Z" fill="#D8553F"/>
<path d="M97.8212 5.06377V10.9394H103.685V5.06377H97.8212Z" fill="#D8553F"/>
<path d="M71.5998 16H55.6325V0H71.5998V16ZM58.8349 12.791H68.3974V3.20899H58.8349V12.791Z" fill="#332D26"/>
<path d="M60.6827 5.06377V10.9394H66.5463V5.06377H60.6827Z" fill="#332D26"/>
<path d="M79.3272 10.9362H85.1909V5.06057L79.3272 5.06057V10.9362Z" fill="#829363"/>
<path d="M90.2443 16H74.277V0H90.2443V16ZM77.4762 12.791H87.0386V3.20899H77.4762V12.791Z" fill="#829363"/>
<path d="M164.368 16H148.4V0H164.368V16ZM151.603 12.791H161.165V3.20899H151.603V12.791Z" fill="#D8553F"/>
<path d="M153.454 5.06057V10.9362H159.317V5.06057H153.454Z" fill="#D8553F"/>
<path d="M127.232 16H111.265V0H127.232V16ZM114.464 12.791H124.027V3.20899H114.464V12.791Z" fill="#332D26"/>
<path d="M116.312 5.06377V10.9394H122.176V5.06377H116.312Z" fill="#332D26"/>
<path d="M134.956 10.9362H140.82V5.06057L134.956 5.06057V10.9362Z" fill="#829363"/>
<path d="M145.874 16H129.906V0H145.874V16ZM133.109 12.791H142.671V3.20899H133.109V12.791Z" fill="#829363"/>
<path d="M220 16H204.033V0H220V16ZM207.235 12.791H216.798V3.20899H207.235V12.791Z" fill="#D8553F"/>
<path d="M209.086 5.06377V10.9394H214.95V5.06377H209.086Z" fill="#D8553F"/>
<path d="M182.861 16H166.894V0H182.861V16ZM170.097 12.791H179.659V3.20899H170.097V12.791Z" fill="#332D26"/>
<path d="M171.944 5.06057V10.9362H177.808V5.06057H171.944Z" fill="#332D26"/>
<path d="M190.592 10.9362H196.456V5.06057L190.592 5.06057V10.9362Z" fill="#829363"/>
<path d="M201.506 16H185.539V0H201.506V16ZM188.741 12.791H198.304V3.20899H188.741V12.791Z" fill="#829363"/>
</g>
<defs>
<clipPath id="clip0_2003_194">
<rect width="220" height="16" fill="white"/>
</clipPath>
</defs>
</svg>
