<svg width="469" height="110" viewBox="0 0 469 110" fill="none" xmlns="http://www.w3.org/2000/svg">
<g clip-path="url(#clip0_2002_131)">
<path d="M258.92 3.16C268.82 3.16 273.68 8.86 273.68 15.64C273.68 20.56 271.04 25.84 264.02 27.58L274.34 44.86H266.18L256.58 28.18H251.36V44.86H244.52V3.16H258.92ZM258.92 8.74H251.36V22.72H258.92C264.26 22.72 266.66 19.78 266.66 15.64C266.66 11.5 264.26 8.74 258.92 8.74Z" fill="black"/>
<path d="M312.38 44.86H305.54V40.9C303.38 43.72 299.66 45.34 295.76 45.34C288.02 45.34 282.14 40.48 282.14 31.24V11.8H288.92V30.22C288.92 36.28 292.22 39.4 297.2 39.4C302.18 39.4 305.54 36.28 305.54 30.22V11.8H312.38V44.86Z" fill="black"/>
<path d="M368.24 26.38C368.24 20.32 364.94 17.2 359.96 17.2C354.98 17.2 351.62 20.32 351.62 26.38V44.86H344.84V26.38C344.84 20.32 341.54 17.2 336.56 17.2C331.58 17.2 328.22 20.32 328.22 26.38V44.86H321.38V11.8H328.22V15.58C330.44 12.88 334.04 11.26 338 11.26C343.22 11.26 347.6 13.48 349.88 17.8C351.92 13.78 356.6 11.26 361.4 11.26C369.14 11.26 375.02 16.12 375.02 25.36V44.86H368.24V26.38Z" fill="black"/>
<path d="M397.94 45.4C388.46 45.4 381.44 38.68 381.44 28.3C381.44 17.92 388.16 11.26 397.94 11.26C407.72 11.26 414.02 17.8 414.02 27.52C414.02 28.66 413.96 29.74 413.78 30.88H388.52C389 36.34 392.9 39.64 397.94 39.64C402.14 39.64 404.48 37.6 405.74 35.02H413.12C411.26 40.78 406.04 45.4 397.94 45.4ZM388.58 25.36H406.88C406.76 20.26 402.74 17.02 397.64 17.02C393.02 17.02 389.3 20.14 388.58 25.36Z" fill="black"/>
<path d="M434.06 11.26C439.64 11.26 443.48 13.9 445.52 16.6V11.8H452.42V44.86H445.52V39.94C443.42 42.76 439.46 45.4 433.94 45.4C425.36 45.4 418.46 38.38 418.46 28.18C418.46 17.98 425.36 11.26 434.06 11.26ZM435.5 17.2C430.4 17.2 425.48 21.04 425.48 28.18C425.48 35.32 430.4 39.46 435.5 39.46C440.6 39.46 445.52 35.44 445.52 28.3C445.52 21.16 440.66 17.2 435.5 17.2Z" fill="black"/>
<path d="M461.42 0.459991H468.26V44.86H461.42V0.459991Z" fill="black"/>
<path d="M251.36 63.16V99.34H265.46V104.86H244.52V63.16H251.36Z" fill="black"/>
<path d="M285.5 105.4C276.08 105.4 268.94 98.68 268.94 88.3C268.94 77.92 276.38 71.26 285.8 71.26C295.22 71.26 302.66 77.92 302.66 88.3C302.66 98.68 294.98 105.4 285.5 105.4ZM285.5 99.46C290.6 99.46 295.64 95.8 295.64 88.3C295.64 80.8 290.78 77.2 285.68 77.2C280.58 77.2 275.9 80.8 275.9 88.3C275.9 95.8 280.34 99.46 285.5 99.46Z" fill="black"/>
<path d="M312.86 71.8L322.22 98.74L331.58 71.8H338.84L326.24 104.86H318.08L305.54 71.8H312.86Z" fill="black"/>
<path d="M358.22 105.4C348.74 105.4 341.72 98.68 341.72 88.3C341.72 77.92 348.44 71.26 358.22 71.26C368 71.26 374.3 77.8 374.3 87.52C374.3 88.66 374.24 89.74 374.06 90.88H348.8C349.28 96.34 353.18 99.64 358.22 99.64C362.42 99.64 364.76 97.6 366.02 95.02H373.4C371.54 100.78 366.32 105.4 358.22 105.4ZM348.86 85.36H367.16C367.04 80.26 363.02 77.02 357.92 77.02C353.3 77.02 349.58 80.14 348.86 85.36Z" fill="black"/>
<path d="M381.02 60.46H387.86V104.86H381.02V60.46Z" fill="black"/>
<path d="M396.86 60.46H403.7V104.86H396.86V60.46Z" fill="black"/>
<path d="M224.05 50.33H174.19V0.470001H224.05V50.33ZM184.18 40.33H214.04V10.47H184.18V40.33Z" fill="#D8553F"/>
<path d="M189.96 16.24V34.55H208.27V16.24H189.96Z" fill="#D8553F"/>
<path d="M49.86 49.86H0V0H49.86V49.86ZM10 39.86H39.86V10H10V39.86Z" fill="#332D26"/>
<path d="M49.86 108.55H0V58.69H49.86V108.55ZM10 98.55H39.86V68.69H10V98.55Z" fill="#332D26"/>
<path d="M107.61 49.86H57.75V0H107.61V49.86ZM67.75 39.86H97.61V10H67.75V39.86Z" fill="#332D26"/>
<path d="M15.77 34.08H34.08V15.77L15.77 15.77L15.77 34.08Z" fill="#332D26"/>
<path d="M73.52 34.08H91.83V15.77L73.52 15.77V34.08Z" fill="#332D26"/>
<path d="M15.77 92.77H34.08V74.46H15.77L15.77 92.77Z" fill="#332D26"/>
<path d="M132.21 93.24H150.52V74.93H132.21V93.24Z" fill="#829363"/>
<path d="M189.96 93.24H208.27V74.93H189.96V93.24Z" fill="#829363"/>
<path d="M132.21 34.56H150.52V16.25L132.21 16.25V34.56Z" fill="#829363"/>
<path d="M166.3 109.01H116.44V59.15H166.3V109.01ZM126.43 99.01H156.29V69.15H126.43V99.01Z" fill="#829363"/>
<path d="M166.3 50.33H116.44V0.470001H166.3V50.33ZM126.43 40.33H156.29V10.47H126.43V40.33Z" fill="#829363"/>
<path d="M224.05 109.01H174.19V59.15H224.05V109.01ZM184.18 99.01H214.04V69.15H184.18V99.01Z" fill="#829363"/>
<path d="M107.61 109.01H57.75V59.15H107.61V109.01ZM67.75 99.01H97.61V69.15H67.75V99.01Z" fill="#D8553F"/>
<path d="M73.53 74.92V93.23H91.84V74.92H73.53Z" fill="#D8553F"/>
</g>
<defs>
<clipPath id="clip0_2002_131">
<rect width="468.26" height="109.01" fill="white"/>
</clipPath>
</defs>
</svg>
